<svg width="35" height="35" viewBox="0 0 35 35" xmlns="http://www.w3.org/2000/svg">
    <g fill-rule="nonzero" fill="none">
        <path d="M34.596 16.49c-.005-.101-.015-.202-.02-.303a14.89 14.89 0 0 0-.076-.874l-.045-.374c-.02-.151-.04-.303-.066-.454-.015-.081-.03-.157-.04-.238a17.133 17.133 0 0 0-1.97-5.47l-.015-.03a17.368 17.368 0 0 0-1.404-2.09c-.016-.02-.03-.036-.04-.056a17.792 17.792 0 0 0-1.662-1.828c-.026-.026-.05-.05-.081-.076a17.066 17.066 0 0 0-1.879-1.535c-.04-.026-.076-.056-.116-.081a18.986 18.986 0 0 0-1.005-.652c-.03-.02-.06-.035-.091-.055a16.431 16.431 0 0 0-.975-.53l-.146-.076a16.76 16.76 0 0 0-1.066-.48c-.06-.025-.121-.05-.187-.07a16.825 16.825 0 0 0-1-.364c-.05-.016-.1-.036-.151-.051a16.05 16.05 0 0 0-1.374-.369c-.354-.08-.712-.151-1.076-.212-.04-.005-.076-.015-.116-.02A15.097 15.097 0 0 0 18.53.045 16.27 16.27 0 0 0 16.495.02c-.101.005-.202.015-.303.02a14.89 14.89 0 0 0-.874.076l-.374.046c-.151.02-.303.04-.454.065a17.133 17.133 0 0 0-7.828 3.43c-.02.015-.036.03-.056.04a17.792 17.792 0 0 0-1.828 1.662l-.076.075a17.71 17.71 0 0 0-1.54 1.88c-.026.04-.056.075-.081.115-.227.329-.445.662-.652 1.005-.02.03-.035.06-.055.091-.187.318-.364.647-.53.975l-.076.146a16.76 16.76 0 0 0-.48 1.066c-.025.06-.05.121-.07.187-.132.328-.253.662-.364 1-.016.05-.036.101-.051.152a16.05 16.05 0 0 0-.369 1.373c-.08.354-.151.712-.212 1.076-.005.04-.015.076-.02.116a15.097 15.097 0 0 0-.157 1.465c-.03.404-.045.808-.045 1.222 0 9.56 7.753 17.313 17.313 17.313 9.56 0 17.303-7.747 17.303-17.308 0-.278-.005-.545-.02-.818z" fill="#FF970A"/>
        <path d="M18.91 3.096c1.676-1.682 4.545-1.53 4.545-1.53s.151 2.873-1.53 4.55c-1.683 1.677-4.551 1.53-4.551 1.53s-.147-2.873 1.535-4.55zM12.404 3.121s2.136-.11 3.389 1.137c1.247 1.247 1.136 3.388 1.136 3.388s-2.136.112-3.389-1.136c-1.252-1.252-1.136-3.389-1.136-3.389z" fill="#FFF"/>
        <path d="M26.94 17.717a9.618 9.618 0 0 1-1.283 4.424c-.152.258-.314.51-.485.753-.01.01-.015.02-.026.03a11.4 11.4 0 0 1-.525.672c-.02.02-.04.045-.06.066a8.667 8.667 0 0 1-.556.585c-.035.036-.07.066-.106.096a8.812 8.812 0 0 1-.566.495c-.055.046-.11.081-.166.127a8.75 8.75 0 0 1-.56.404c-.077.05-.158.096-.238.141a8.396 8.396 0 0 1-.54.318c-.102.056-.208.101-.314.152-.172.08-.338.166-.515.242-.126.056-.263.096-.389.142-.162.06-.318.12-.48.171-.156.05-.318.081-.48.122-.14.035-.282.08-.429.106-.197.04-.399.065-.6.09-.117.016-.228.04-.344.051a9.656 9.656 0 0 1-10.58-10.59c.01-.122.034-.243.055-.36.025-.196.05-.398.09-.595.03-.162.081-.314.122-.47.04-.152.07-.303.116-.45.055-.181.126-.353.192-.53.045-.116.08-.237.131-.353.08-.197.182-.39.278-.576.045-.086.08-.177.126-.263.116-.212.243-.414.374-.621.035-.056.065-.116.106-.172a8.41 8.41 0 0 1 .475-.641c.025-.03.045-.066.07-.096.182-.222.38-.44.581-.647.01-.01.02-.025.03-.035a9.634 9.634 0 0 1 6.743-2.864c.04 0 .08-.005.121-.005.141 0 .273.016.414.02a9.67 9.67 0 0 1 3.606.864c.005.005.015.005.02.01.263.122.52.258.773.4.025.014.046.025.066.04.232.136.46.283.682.434l.12.09c.198.142.39.294.577.45.06.05.12.107.176.162.162.141.319.288.465.44.08.08.152.166.227.247.122.136.243.268.359.409.096.116.182.237.268.354.085.116.176.237.257.358.101.152.197.313.288.47.06.096.121.197.177.298.106.192.197.389.288.586l.106.227c.096.227.187.465.262.702.016.05.04.101.056.157.086.267.157.535.217.813.005.03.015.06.02.09.066.299.111.597.147.905 0 .01.005.02.005.035.035.318.055.641.06.97 0 .04.005.08.005.12.01.157-.005.294-.01.43z" fill="#FFF"/>
    </g>
</svg>
